Coordinates
version=1
nRows=16
nColumns=36
inDegrees=yes

Units are S.I. units (second, meters, Newtons, ...)
If the header above contains a line with 'inDegrees', this indicates whether rotational values are in degrees (yes) or radians (no).

endheader
time	pelvis_tilt	pelvis_list	pelvis_rotation	pelvis_tx	pelvis_ty	pelvis_tz	hip_flexion_r	hip_adduction_r	hip_rotation_r	knee_angle_r	knee_angle_r_beta	ankle_angle_r	subtalar_angle_r	mtp_angle_r	hip_flexion_l	hip_adduction_l	hip_rotation_l	knee_angle_l	knee_angle_l_beta	ankle_angle_l	subtalar_angle_l	mtp_angle_l	lumbar_extension	lumbar_bending	lumbar_rotation	arm_flex_r	arm_add_r	arm_rot_r	elbow_flex_r	pro_sup_r	arm_flex_l	arm_add_l	arm_rot_l	elbow_flex_l	pro_sup_l
     25.78333330	    -37.62157571	      0.55107981	     -3.83150865	     -0.01885394	      0.75469284	     -0.04897422	     89.36504335	     -2.62227058	     -1.95254374	     71.17283337	      1.24220028	     32.54623327	      6.51684604	     -7.49999987	     91.00645012	    -15.87279298	     -4.79785267	     76.11961884	      1.32853797	     31.99676812	      9.23660467	     -7.49999987	    -30.38619349	     -1.67068437	      9.80676370	     40.54274588	    -17.59161171	     16.26437134	     73.80888445	     98.11397965	     46.60923827	     -8.49596822	     28.57446500	     68.96138023	     99.27396727
     25.80000000	    -37.75715542	      0.54802963	     -3.70314871	     -0.03162824	      0.75218780	     -0.04267578	     90.00658494	     -2.75905193	     -1.85197362	     71.87589519	      1.25447102	     32.82460450	      6.50540237	     -7.49999987	     91.58339609	    -15.83316906	     -4.63997758	     76.62761949	      1.33740426	     32.31311893	      9.29091601	     -7.49999987	    -30.63372933	     -1.54887801	      9.82027886	     41.14600348	    -17.62361645	     16.10059547	     73.73820237	     98.38730388	     47.32153510	     -8.30270592	     28.39224126	     68.95072457	     99.55849122
     25.81666670	    -37.91856918	      0.65953248	     -3.50751967	     -0.03094059	      0.75095324	     -0.04271942	     90.61372510	     -2.93255291	     -1.58334373	     72.49755901	      1.26532110	     33.39750157	      6.46395199	     -7.49999987	     92.08067012	    -15.60505684	     -4.57393606	     77.08832653	      1.34544511	     32.62530554	      9.07159689	     -7.49999987	    -30.63135213	     -1.52087683	      9.71027492	     41.64761504	    -17.75720618	     16.14251856	     73.21432759	     97.28300583	     47.89321961	     -8.36134965	     28.64114988	     68.39129095	     98.66266478
     25.83333330	    -38.30270170	      0.73078279	     -3.41584178	     -0.04170463	      0.74221295	     -0.04932168	     91.93358153	     -3.14840238	     -1.39194321	     73.46514434	      1.28220865	     33.58007212	      6.35728476	     -7.49999987	     93.32790786	    -15.39420469	     -4.34463802	     77.94509226	      1.36039850	     32.48601830	      8.80843731	     -7.49999987	    -30.33467042	     -1.35922226	      9.77846672	     42.07485023	    -18.11570055	     16.12536548	     73.48005570	     97.67123671	     48.33327241	     -8.38917606	     28.70691731	     68.57532650	     99.15630033
     25.85000000	    -38.23649321	      0.84386119	     -3.46923981	     -0.04096921	      0.73639375	     -0.05037063	     92.65409617	     -3.16720530	     -1.13551668	     74.43494036	      1.29913479	     33.84694800	      6.20928363	     -7.49999987	     94.02240300	    -15.27854952	     -4.22096498	     78.88156072	      1.37674295	     32.58304132	      8.67214149	     -7.49999987	    -30.51385458	     -1.28575854	      9.83522327	     42.48904066	    -18.20768777	     16.10062574	     73.52854848	     97.70211045	     48.87634963	     -8.32879504	     28.64581589	     68.65588718	     99.21317438
     25.86666670	    -38.74349516	      1.03380260	     -3.29858356	     -0.04058880	      0.73513171	     -0.05056714	     93.70675427	     -3.42300175	     -0.88217951	     75.07699478	      1.31034075	     34.41839527	      6.23145790	     -7.49999987	     94.92795992	    -14.92521717	     -4.23190893	     79.28824812	      1.38384099	     32.66673434	      8.42256933	     -7.49999987	    -30.05647681	     -1.19805545	      9.71786558	     42.04436993	    -18.70762047	     16.60018490	     73.52773587	     96.33720538	     48.89988427	     -8.46523452	     29.17274700	     68.68048009	     98.27935663
     25.88333330	    -38.94899290	      1.13824396	     -3.25408251	     -0.04100133	      0.72131473	     -0.04839696	     94.91836354	     -3.46613668	     -0.66521076	     76.47211524	      1.33469020	     35.16157222	      6.30871022	     -7.49999987	     96.04625377	    -14.81386601	     -4.10614065	     80.47937709	      1.40463011	     32.99563105	      8.31438442	     -7.49999987	    -29.42734757	     -1.14995874	      9.67434751	     41.39505812	    -19.06059100	     16.97987068	     74.23218316	     94.27433384	     48.84454623	     -8.75911701	     29.88497065	     69.13073083	     96.31373768
     25.90000000	    -38.93119208	      1.17143834	     -3.09132956	     -0.04128287	      0.72085083	     -0.04848348	     95.66322758	     -3.64877707	     -0.54535792	     77.52737051	      1.35310788	     35.67316650	      6.23024239	     -7.49999987	     96.69517359	    -14.58281847	     -3.95329496	     81.29132881	      1.41880134	     33.14240529	      8.06181004	     -7.49999987	    -29.38304778	     -1.05601188	      9.54454072	     40.73999647	    -19.41058766	     16.49201849	     74.39315877	     93.83121336	     48.19635739	     -9.29672895	     29.79488912	     68.91097702	     96.16272891
     25.91666670	    -39.42086120	      1.07118329	     -2.82681360	     -0.05326872	      0.71127420	     -0.04130067	     97.18096886	     -3.77521060	     -0.53654674	     78.84812532	      1.37615940	     36.14341064	      6.32125887	     -7.49999987	     98.27192232	    -14.56232348	     -3.67799445	     82.30879721	      1.43655951	     33.24982483	      8.16502530	     -7.49999987	    -28.33937221	     -1.00414590	      9.61221206	     40.59270353	    -19.62360084	     16.37056235	     74.92628594	     94.55963147	     48.15431026	     -9.72137172	     30.28921136	     68.96062820	     97.25777207
     25.93333330	    -39.31166522	      1.35211835	     -2.77742204	     -0.04062098	      0.71322859	     -0.04750915	     97.48584154	     -3.71333754	     -0.07262846	     79.46852718	      1.38698745	     36.46564621	      6.17943699	     -7.49999987	     98.36211671	    -14.41698945	     -3.83041289	     82.78504220	      1.44487156	     33.32734748	      7.89192413	     -7.49999987	    -28.21220326	     -1.46017364	     10.01782837	     39.12888355	    -19.68948883	     14.10927150	     75.29989468	     96.35179026	     47.66104406	     -9.17923096	     29.79796127	     67.91277906	    101.10498741
     25.95000000	    -39.19902415	      1.51866006	     -2.66575143	     -0.04066497	      0.70694694	     -0.04638698	     97.83457417	     -3.75579938	      0.20732066	     80.12104420	      1.39837602	     36.84221299	      6.19356889	     -7.49999987	     98.50472516	    -14.29526273	     -3.91619226	     83.24314089	      1.45286689	     33.50409859	      7.79913805	     -7.49999987	    -27.98564807	     -1.52521998	      9.60629601	     39.20480373	    -19.23291017	     14.19078564	     74.82511637	     94.61972309	     47.42585877	     -9.08694810	     29.38151724	     67.58130802	     99.08175780
     25.96666670	    -38.69291661	      1.48386049	     -2.48930400	     -0.03139397	      0.70863884	     -0.03904861	     97.22438918	     -3.74049642	      0.38243400	     80.51375942	      1.40523020	     37.19754656	      5.94711772	     -7.49999987	     97.95458537	    -14.20735175	     -3.87749030	     83.56804089	      1.45853746	     33.87400455	      7.67347930	     -7.49999987	    -28.23117285	     -1.56705085	      9.38862226	     38.56924156	    -18.94795609	     14.05423434	     74.69562107	     93.94815097	     46.92371254	     -9.15305475	     29.26302466	     67.32708033	     98.26754432
     25.98333330	    -38.79452087	      1.34843354	     -2.29340023	     -0.04362585	      0.70634218	     -0.03282819	     97.42170208	     -3.73308771	      0.32986350	     80.85901253	      1.41125600	     37.45326405	      6.04628125	     -7.49999987	     98.29662218	    -14.38622087	     -3.74398001	     83.71845828	      1.46116274	     34.08641582	      7.84245514	     -7.49999987	    -28.10498726	     -1.66834610	      9.41925063	     39.02491254	    -18.84652196	     13.98206909	     74.78240615	     94.13542467	     47.42775012	     -9.12223002	     29.18734085	     67.32696418	     98.48952731
     26.00000000	    -38.71623376	      1.11299000	     -2.17717325	     -0.04462002	      0.70056405	     -0.03406716	     97.65252171	     -3.66420833	      0.15856534	     81.37824283	      1.42031828	     37.81429289	      6.44090816	     -7.49999987	     98.72484700	    -14.54662945	     -3.43718688	     84.23975844	      1.47026115	     33.96038031	      8.34253663	     -7.49999987	    -27.78260851	     -1.54553060	      9.27070191	     39.24802703	    -18.28331596	     14.10118562	     73.94811015	     93.46600869	     47.62079746	     -9.57830294	     29.86676226	     66.86217886	     97.70525001
     26.01666670	    -38.77480947	      1.09652450	     -2.06238087	     -0.04390776	      0.70032549	     -0.03411465	     97.94489086	     -3.61181531	      0.23593114	     81.70749457	      1.42606480	     37.96214410	      6.61207793	     -7.49999987	     99.00706473	    -14.60163798	     -3.34753398	     84.45002528	      1.47393099	     33.78520402	      8.44137093	     -7.49999987	    -27.56616405	     -1.69229343	      9.24438068	     39.34926336	    -18.31905256	     14.21767012	     73.74396290	     93.26539623	     47.63080588	     -9.77487998	     29.98746014	     67.00203888	     97.59053762
     26.03333330	    -38.80596377	      1.06872741	     -2.00492771	     -0.04409634	      0.70062147	     -0.03420199	     98.12611369	     -3.54736059	      0.31341276	     81.93068508	      1.42996021	     38.03171119	      6.48169804	     -7.49999987	     99.20228812	    -14.63226618	     -3.23321808	     84.58485994	      1.47628430	     33.66836826	      8.39719206	     -7.49999987	    -27.56543099	     -1.79241837	      9.16694761	     39.52438223	    -18.34261288	     14.36651766	     73.56254742	     92.93868571	     47.74910611	     -9.86832038	     30.10232919	     67.00814267	     97.29872750
